HIERARCHY
ROOT hips
{
	OFFSET 0.000000 29.995300 -0.000000
	CHANNELS 6 Xposition Yposition Zposition Zrotation Yrotation Xrotation 
	JOINT Chest
	{
		OFFSET 0.000000 10.123600 0.695200
		CHANNELS 3 Zrotation Yrotation Xrotation
		JOINT Chest2
		{
			OFFSET 0.000000 15.405600 0.012300
			CHANNELS 3 Zrotation Yrotation Xrotation
			JOINT Chest3
			{
				OFFSET 0.000000 11.482400 -0.009100
				CHANNELS 3 Zrotation Yrotation Xrotation
				JOINT Neck
				{
					OFFSET 0.000000 25.678300 -0.023300
					CHANNELS 3 Zrotation Yrotation Xrotation
					JOINT Head
					{
						OFFSET 0.000000 13.458800 0.864200
						CHANNELS 3 Zrotation Yrotation Xrotation
						JOINT Head_End
						{
							OFFSET 0.000000 11.713200 -0.000000
							CHANNELS 3 Zrotation Yrotation Xrotation
							End Site
							{
								OFFSET 0.005000 0.000000 0.000000
							}
						}
					}
				}
				JOINT LeftCollar
				{
					OFFSET 12.227600 21.516500 -0.711700
					CHANNELS 3 Zrotation Yrotation Xrotation
					JOINT LeftShoulder
					{
						OFFSET 10.451400 0.021300 -0.002200
						CHANNELS 3 Zrotation Yrotation Xrotation
						JOINT LeftElbow
						{
							OFFSET 26.123400 0.000000 0.000000
							CHANNELS 3 Zrotation Yrotation Xrotation
							JOINT LeftWrist
							{
								OFFSET 25.245600 0.035600 0.002400
								CHANNELS 3 Zrotation Yrotation Xrotation
								JOINT Middle_00_L
								{
									OFFSET 11.653500 0.000000 0.000000
									CHANNELS 3 Zrotation Yrotation Xrotation
									JOINT Middle_01_L
									{
										OFFSET 4.384300 0.000000 0.000000
										CHANNELS 3 Zrotation Yrotation Xrotation
										JOINT Middle_02_L
										{
											OFFSET 3.470400 -0.000300 0.000000
											CHANNELS 3 Zrotation Yrotation Xrotation
											JOINT Middle_03_L
											{
												OFFSET 2.422200 0.000300 0.000000
												CHANNELS 3 Zrotation Yrotation Xrotation
												End Site
												{
													OFFSET 0.005000 0.000000 0.000000
												}
											}
										}
									}
								}
								JOINT Index_00_L
								{
									OFFSET 11.320700 0.000000 3.214800
									CHANNELS 3 Zrotation Yrotation Xrotation
									JOINT Index_01_L
									{
										OFFSET 3.752500 0.000000 0.000000
										CHANNELS 3 Zrotation Yrotation Xrotation
										JOINT Index_02_L
										{
											OFFSET 2.704900 0.000000 0.000300
											CHANNELS 3 Zrotation Yrotation Xrotation
											JOINT Index_03_L
											{
												OFFSET 2.288400 0.000000 -0.000300
												CHANNELS 3 Zrotation Yrotation Xrotation
												End Site
												{
													OFFSET 0.005000 0.000000 0.000000
												}
											}
										}
									}
								}
								JOINT Thumb_00_L
								{
									OFFSET 2.189000 0.000000 5.112700
									CHANNELS 3 Zrotation Yrotation Xrotation
									JOINT Thumb_01_L
									{
										OFFSET 5.672300 0.000000 0.000000
										CHANNELS 3 Zrotation Yrotation Xrotation
										JOINT Thumb_02_L
										{
											OFFSET 3.353600 0.000000 0.000400
											CHANNELS 3 Zrotation Yrotation Xrotation
											JOINT Thumb_03_L
											{
												OFFSET 3.066600 0.000000 -0.000400
												CHANNELS 3 Zrotation Yrotation Xrotation
												End Site
												{
													OFFSET 0.005000 0.000000 0.000000
												}
											}
										}
									}
								}
								JOINT Ring_00_L
								{
									OFFSET 11.421100 0.000000 -3.087400
									CHANNELS 3 Zrotation Yrotation Xrotation
									JOINT Ring_01_L
									{
										OFFSET 4.107700 0.000000 0.000000
										CHANNELS 3 Zrotation Yrotation Xrotation
										JOINT Ring_02_L
										{
											OFFSET 2.971800 0.000000 0.000500
											CHANNELS 3 Zrotation Yrotation Xrotation
											JOINT Ring_03_L
											{
												OFFSET 2.159200 0.000000 -0.000500
												CHANNELS 3 Zrotation Yrotation Xrotation
												End Site
												{
													OFFSET 0.005000 0.000000 0.000000
												}
											}
										}
									}
								}
								JOINT Little_00_L
								{
									OFFSET 10.838200 0.000000 -5.836000
									CHANNELS 3 Zrotation Yrotation Xrotation
									JOINT Little_01_L
									{
										OFFSET 3.568800 0.000000 0.000000
										CHANNELS 3 Zrotation Yrotation Xrotation
										JOINT Little_02_L
										{
											OFFSET 2.336100 0.000000 0.000200
											CHANNELS 3 Zrotation Yrotation Xrotation
											JOINT Little_03_L
											{
												OFFSET 1.912900 0.000000 -0.000200
												CHANNELS 3 Zrotation Yrotation Xrotation
												End Site
												{
													OFFSET 0.005000 0.000000 0.000000
												}
											}
										}
									}
								}
							}
						}
					}
				}
				JOINT RightCollar
				{
					OFFSET -12.227600 21.516500 -0.711700
					CHANNELS 3 Zrotation Yrotation Xrotation
					JOINT RightShoulder
					{
						OFFSET -10.451300 0.021300 -0.002200
						CHANNELS 3 Zrotation Yrotation Xrotation
						JOINT RightElbow
						{
							OFFSET -26.123400 0.000000 0.000000
							CHANNELS 3 Zrotation Yrotation Xrotation
							JOINT RightWrist
							{
								OFFSET -25.245800 0.035400 0.002000
								CHANNELS 3 Zrotation Yrotation Xrotation
								JOINT Middle_00_R
								{
									OFFSET -11.654000 0.000000 0.000000
									CHANNELS 3 Zrotation Yrotation Xrotation
									JOINT Middle_01_R
									{
										OFFSET -4.408600 0.000000 0.000000
										CHANNELS 3 Zrotation Yrotation Xrotation
										JOINT Middle_02_R
										{
											OFFSET -3.470400 0.000000 0.000000
											CHANNELS 3 Zrotation Yrotation Xrotation
											JOINT Middle_03_R
											{
												OFFSET -2.422200 0.000000 0.000000
												CHANNELS 3 Zrotation Yrotation Xrotation
												End Site
												{
													OFFSET 0.005000 0.000000 0.000000
												}
											}
										}
									}
								}
								JOINT Ring_00_R
								{
									OFFSET -11.459300 0.000000 -3.067300
									CHANNELS 3 Zrotation Yrotation Xrotation
									JOINT Ring_01_R
									{
										OFFSET -4.107700 0.000000 0.000000
										CHANNELS 3 Zrotation Yrotation Xrotation
										JOINT Ring_02_R
										{
											OFFSET -2.971800 0.000000 0.000000
											CHANNELS 3 Zrotation Yrotation Xrotation
											JOINT Ring_03_R
											{
												OFFSET -2.159200 0.000000 0.000000
												CHANNELS 3 Zrotation Yrotation Xrotation
												End Site
												{
													OFFSET 0.005000 0.000000 0.000000
												}
											}
										}
									}
								}
								JOINT Little_00_R
								{
									OFFSET -10.887000 0.000000 -5.818300
									CHANNELS 3 Zrotation Yrotation Xrotation
									JOINT Little_01_R
									{
										OFFSET -3.568800 0.000000 0.000000
										CHANNELS 3 Zrotation Yrotation Xrotation
										JOINT Little_02_R
										{
											OFFSET -2.336100 0.000000 0.000000
											CHANNELS 3 Zrotation Yrotation Xrotation
											JOINT Little_03_R
											{
												OFFSET -1.912900 0.000000 0.000000
												CHANNELS 3 Zrotation Yrotation Xrotation
												End Site
												{
													OFFSET 0.005000 0.000000 0.000000
												}
											}
										}
									}
								}
								JOINT Index_00_R
								{
									OFFSET -11.333200 0.000000 3.234400
									CHANNELS 3 Zrotation Yrotation Xrotation
									JOINT Index_01_R
									{
										OFFSET -3.752500 0.000000 0.000000
										CHANNELS 3 Zrotation Yrotation Xrotation
										JOINT Index_02_R
										{
											OFFSET -2.704900 0.000000 0.000000
											CHANNELS 3 Zrotation Yrotation Xrotation
											JOINT Index_03_R
											{
												OFFSET -2.288400 0.000000 0.000000
												CHANNELS 3 Zrotation Yrotation Xrotation
												End Site
												{
													OFFSET 0.005000 0.000000 0.000000
												}
											}
										}
									}
								}
								JOINT Thumb_00_R
								{
									OFFSET -2.193600 -0.231700 5.095700
									CHANNELS 3 Zrotation Yrotation Xrotation
									JOINT Thumb_01_R
									{
										OFFSET -5.672200 0.231700 0.000000
										CHANNELS 3 Zrotation Yrotation Xrotation
										JOINT Thumb_02_R
										{
											OFFSET -3.353600 0.000000 0.000000
											CHANNELS 3 Zrotation Yrotation Xrotation
											JOINT Thumb_03_R
											{
												OFFSET -3.066500 0.000000 0.000000
												CHANNELS 3 Zrotation Yrotation Xrotation
												End Site
												{
													OFFSET 0.005000 0.000000 0.000000
												}
											}
										}
									}
								}
							}
						}
					}
				}
			}
		}
	}
	JOINT LeftHip
	{
		OFFSET 6.356900 0.000000 0.000000
		CHANNELS 3 Zrotation Yrotation Xrotation
		JOINT LeftKnee
		{
			OFFSET -0.000100 -37.930500 0.000000
			CHANNELS 3 Zrotation Yrotation Xrotation
			JOINT LeftAnkle
			{
				OFFSET -0.000100 -42.440200 -0.085400
				CHANNELS 3 Zrotation Yrotation Xrotation
				JOINT LeftToe
				{
					OFFSET 0.135400 -9.338000 13.882500
					CHANNELS 3 Zrotation Yrotation Xrotation
					End Site
					{
						OFFSET 0.005000 0.000000 0.000000
					}
				}
			}
		}
	}
	JOINT RightHip
	{
		OFFSET -6.356900 0.000000 0.000000
		CHANNELS 3 Zrotation Yrotation Xrotation
		JOINT RightKnee
		{
			OFFSET 0.000100 -37.930500 0.000000
			CHANNELS 3 Zrotation Yrotation Xrotation
			JOINT RightAnkle
			{
				OFFSET 0.000100 -42.440200 -0.085400
				CHANNELS 3 Zrotation Yrotation Xrotation
				JOINT RightToe
				{
					OFFSET -0.135400 -9.338000 13.882500
					CHANNELS 3 Zrotation Yrotation Xrotation
					End Site
					{
						OFFSET 0.005000 0.000000 0.000000
					}
				}
			}
		}
	}
}
MOTION
Frames: 6
Frame Time: 0.041667
0.000000 89.700000 0.000000 0.000000 0.000000 0.000000 0.873266 22.432919 -4.610756 -3.596874 2.217912 -2.770803 -2.645102 3.655262 2.365659 -0.895766 -9.414405 3.972984 -1.260164 -5.772158 0.874118 0.000000 0.000000 0.000000 -15.558111 -1.528621 -5.119448 -37.940054 -10.947785 17.142575 164.026825 -76.043199 -143.093447 -18.997291 -6.818508 -17.011538 -51.373634 6.510687 3.682061 -15.316731 0.000000 0.000000 -19.608079 0.000000 0.000000 0.022390 -0.001199 4.934506 -37.811842 8.058833 -3.241421 -21.769552 0.000000 0.000000 -18.738948 0.000000 0.000000 2.447046 -0.079831 2.056764 -20.539828 -16.328692 93.603120 -16.513673 0.000000 0.000000 6.703454 0.000000 0.000000 4.260386 -0.094452 1.375350 -48.792160 -4.066033 13.957998 -18.352640 0.000000 0.000000 -19.231877 0.000000 0.000000 -6.917769 0.291382 2.291170 -50.938889 -4.982229 14.768246 -12.343073 0.000000 0.000000 -14.986180 0.000000 0.000000 0.441624 -0.014543 2.538997 4.814921 13.753228 -7.488430 3.789480 25.310892 -16.265005 -29.410857 50.035737 -22.901560 2.404574 4.963454 -10.281727 58.158434 11.564637 12.156543 32.448018 0.000000 0.000000 29.158815 0.000000 0.000000 -7.969741 -5.107087 -8.050663 48.705845 13.525176 9.102658 40.648138 0.000000 0.000000 30.711810 0.000000 0.000000 6.271931 -1.933901 -4.817211 61.293150 13.577760 10.657370 26.740974 0.000000 0.000000 17.338533 0.000000 0.000000 -1.013052 -2.505694 -6.799366 27.743747 10.031319 14.612539 17.668156 0.000000 0.000000 -0.431928 0.000000 0.000000 -3.109834 -2.403556 -3.139792 27.944045 23.386583 108.222640 18.526991 0.000000 0.000000 30.644112 0.000000 0.000000 -4.610124 -2.491975 -2.359596 0.000000 0.000000 0.000000 0.000000 0.000000 0.000000 0.000000 0.000000 0.000000 0.000000 0.000000 0.000000 0.000000 0.000000 0.000000 0.000000 0.000000 0.000000 0.000000 0.000000 0.000000 0.000000 0.000000 0.000000 
0.000000 89.700000 0.000000 0.000000 0.000000 0.000000 0.732413 20.595379 -4.699156 -3.114508 1.683658 -3.018286 -2.531211 3.128424 2.518296 -0.644687 -8.162306 3.623523 -1.163223 -5.003957 0.440110 0.000000 0.000000 0.000000 -14.847854 -1.015663 -6.050695 -34.599467 -11.525628 13.237026 141.568338 -76.560748 -121.332502 -5.583357 -0.400534 -7.510544 -39.641505 4.821549 7.047721 -14.973525 0.000000 0.000000 -14.371294 0.000000 0.000000 0.022390 -0.001199 4.934506 -25.444977 5.354688 0.033754 -22.084423 0.000000 0.000000 -15.135424 0.000000 0.000000 2.447046 -0.079831 2.056764 -18.741548 -15.028894 96.891487 -15.161305 0.000000 0.000000 5.922200 0.000000 0.000000 4.260386 -0.094452 1.375350 -39.498092 -4.375459 14.636477 -18.293030 0.000000 0.000000 -15.083556 0.000000 0.000000 -6.917769 0.291382 2.291170 -44.185974 -4.683520 14.894583 -11.589819 0.000000 0.000000 -12.165103 0.000000 0.000000 0.441624 -0.014543 2.538997 5.382760 12.239932 -8.051164 5.161006 23.719519 -15.143318 -34.554574 52.204663 -26.645110 3.157051 7.849137 -16.902995 49.204319 13.160120 11.976626 33.619385 0.000000 0.000000 23.814868 0.000000 0.000000 -7.969741 -5.107087 -8.050663 35.445724 14.177191 10.517441 40.912056 0.000000 0.000000 26.808826 0.000000 0.000000 6.271931 -1.933901 -4.817211 40.135743 11.174075 11.000571 29.751809 0.000000 0.000000 17.874674 0.000000 0.000000 -1.013052 -2.505694 -6.799366 31.371754 12.069835 14.053393 19.567706 0.000000 0.000000 2.155700 0.000000 0.000000 -3.109834 -2.403556 -3.139792 26.751156 24.205622 110.548131 18.226502 0.000000 0.000000 29.477088 0.000000 0.000000 -4.610124 -2.491975 -2.359596 0.000000 0.000000 0.000000 0.000000 0.000000 0.000000 0.000000 0.000000 0.000000 0.000000 0.000000 0.000000 0.000000 0.000000 0.000000 0.000000 0.000000 0.000000 0.000000 0.000000 0.000000 0.000000 0.000000 0.000000 
0.000000 89.700000 0.000000 0.000000 0.000000 0.000000 0.577168 18.752216 -4.775079 -2.596426 1.114899 -3.250032 -2.374149 2.622741 2.647402 -0.455891 -6.911329 3.395872 -1.010262 -4.287971 -0.074826 0.000000 0.000000 0.000000 -13.724183 -0.844957 -7.156607 -30.762705 -12.563386 8.758504 114.307514 -74.801826 -95.545658 8.849190 6.058073 0.012882 -22.252792 3.115189 9.868620 -14.688271 0.000000 0.000000 -8.730016 0.000000 0.000000 0.022390 -0.001199 4.934506 -10.869903 2.349793 3.780150 -21.383870 0.000000 0.000000 -11.708001 0.000000 0.000000 2.447046 -0.079831 2.056764 -17.865406 -15.458171 101.556167 -14.142483 0.000000 0.000000 3.416620 0.000000 0.000000 4.260386 -0.094452 1.375350 -23.916718 -3.994997 14.898589 -18.715915 0.000000 0.000000 -10.496963 0.000000 0.000000 -6.917769 0.291382 2.291170 -31.496989 -3.502399 14.824084 -11.138186 0.000000 0.000000 -10.074277 0.000000 0.000000 0.441624 -0.014543 2.538997 5.753449 10.950998 -8.639925 5.871587 22.168554 -14.595543 -39.295429 52.891760 -30.802526 2.967836 9.874715 -22.118623 45.317354 11.348577 10.882685 34.881212 0.000000 0.000000 18.521189 0.000000 0.000000 -7.969741 -5.107087 -8.050663 29.523058 12.853646 11.134494 41.823495 0.000000 0.000000 22.459233 0.000000 0.000000 6.271931 -1.933901 -4.817211 31.069642 7.429901 9.974372 34.477754 0.000000 0.000000 19.793248 0.000000 0.000000 -1.013052 -2.505694 -6.799366 34.244958 12.026819 13.219581 20.370060 0.000000 0.000000 3.135428 0.000000 0.000000 -3.109834 -2.403556 -3.139792 24.326538 26.152089 110.506051 19.893104 0.000000 0.000000 28.857188 0.000000 0.000000 -4.610124 -2.491975 -2.359596 0.000000 0.000000 0.000000 0.000000 0.000000 0.000000 0.000000 0.000000 0.000000 0.000000 0.000000 0.000000 0.000000 0.000000 0.000000 0.000000 0.000000 0.000000 0.000000 0.000000 0.000000 0.000000 0.000000 0.000000 
0.000000 89.700000 0.000000 0.000000 0.000000 0.000000 0.362721 16.916816 -4.877848 -2.032451 0.495575 -3.432285 -2.182030 2.161152 2.711026 -0.345525 -5.690374 3.324762 -0.810816 -3.695762 -0.715956 0.000000 0.000000 0.000000 -12.164563 -1.151771 -8.368863 -26.424676 -14.043391 3.915830 91.524433 -69.962306 -75.136649 21.251187 11.890439 5.256602 -10.081011 1.924105 11.771604 -13.445748 0.000000 0.000000 -3.073128 0.000000 0.000000 0.022390 -0.001199 4.934506 -2.654605 0.109477 6.565632 -19.662796 0.000000 0.000000 -8.579259 0.000000 0.000000 2.447046 -0.079831 2.056764 -17.681195 -18.073204 105.101012 -13.523285 0.000000 0.000000 0.864990 0.000000 0.000000 4.260386 -0.094452 1.375350 -10.674640 -2.867859 14.977192 -18.981270 0.000000 0.000000 -6.052949 0.000000 0.000000 -6.917769 0.291382 2.291170 -16.687204 -1.696208 14.496718 -11.531621 0.000000 0.000000 -9.056658 0.000000 0.000000 0.441624 -0.014543 2.538997 5.850727 10.016432 -9.249523 5.927977 20.876317 -14.642686 -43.502768 51.572943 -35.348776 0.279776 9.805822 -24.580231 49.623075 7.326426 8.910775 34.108982 0.000000 0.000000 12.932107 0.000000 0.000000 -7.969741 -5.107087 -8.050663 36.639325 9.939388 11.179659 41.378412 0.000000 0.000000 16.993108 0.000000 0.000000 6.271931 -1.933901 -4.817211 36.840103 3.871417 9.077764 38.060004 0.000000 0.000000 21.727715 0.000000 0.000000 -1.013052 -2.505694 -6.799366 34.646413 10.132642 12.372990 19.896437 0.000000 0.000000 2.263695 0.000000 0.000000 -3.109834 -2.403556 -3.139792 20.666942 28.600932 108.645991 22.680765 0.000000 0.000000 28.072412 0.000000 0.000000 -4.610124 -2.491975 -2.359596 0.000000 0.000000 0.000000 0.000000 0.000000 0.000000 0.000000 0.000000 0.000000 0.000000 0.000000 0.000000 0.000000 0.000000 0.000000 0.000000 0.000000 0.000000 0.000000 0.000000 0.000000 0.000000 0.000000 0.000000 
0.000000 89.700000 0.000000 0.000000 0.000000 0.000000 0.071769 15.079389 -5.021653 -1.429010 -0.167013 -3.545468 -1.969709 1.756125 2.679903 -0.295183 -4.522624 3.414240 -0.596283 -3.285509 -1.464130 0.000000 0.000000 0.000000 -10.201401 -1.995801 -9.597531 -21.617688 -15.778470 -1.024035 76.128665 -63.737134 -62.912203 30.688575 16.440787 8.788706 -11.702308 1.563597 12.353820 -11.525884 0.000000 0.000000 1.946165 0.000000 0.000000 0.022390 -0.001199 4.934506 -1.924620 -0.831439 7.559647 -18.047273 0.000000 0.000000 -5.846647 0.000000 0.000000 2.447046 -0.079831 2.056764 -17.399325 -22.419314 106.406919 -13.813158 0.000000 0.000000 -1.297422 0.000000 0.000000 4.260386 -0.094452 1.375350 -12.378785 -1.135304 14.994446 -19.208591 0.000000 0.000000 -2.826891 0.000000 0.000000 -6.917769 0.291382 2.291170 -10.143590 0.297383 13.816982 -13.311047 0.000000 0.000000 -9.133907 0.000000 0.000000 0.441624 -0.014543 2.538997 5.616587 9.536464 -9.866748 5.441768 20.023610 -15.197311 -44.235926 48.468781 -37.846239 -5.851726 6.532840 -23.416101 46.177844 3.618408 6.705658 29.188105 0.000000 0.000000 6.440689 0.000000 0.000000 -7.969741 -5.107087 -8.050663 37.287524 6.641648 11.341268 37.283974 0.000000 0.000000 10.050037 0.000000 0.000000 6.271931 -1.933901 -4.817211 36.459442 1.441362 9.359792 37.145529 0.000000 0.000000 21.991214 0.000000 0.000000 -1.013052 -2.505694 -6.799366 27.331756 7.991493 11.813507 18.435435 0.000000 0.000000 -0.106028 0.000000 0.000000 -3.109834 -2.403556 -3.139792 16.381036 30.623299 106.561760 24.963426 0.000000 0.000000 26.106310 0.000000 0.000000 -4.610124 -2.491975 -2.359596 0.000000 0.000000 0.000000 0.000000 0.000000 0.000000 0.000000 0.000000 0.000000 0.000000 0.000000 0.000000 0.000000 0.000000 0.000000 0.000000 0.000000 0.000000 0.000000 0.000000 0.000000 0.000000 0.000000 0.000000 
0.000000 89.700000 0.000000 0.000000 0.000000 0.000000 -0.268484 13.217438 -5.173374 -0.800572 -0.846127 -3.591111 -1.754328 1.406455 2.542350 -0.258974 -3.402849 3.630572 -0.402813 -3.076069 -2.228868 0.000000 0.000000 0.000000 -7.916065 -3.351658 -10.760546 -16.519511 -17.494492 -5.735435 65.724616 -57.508529 -55.973329 38.136673 19.151360 11.368568 -28.605913 1.774388 11.156743 -9.767794 0.000000 0.000000 5.564583 0.000000 0.000000 0.022390 -0.001199 4.934506 -13.836061 -0.874682 7.163459 -17.486717 0.000000 0.000000 -3.639513 0.000000 0.000000 2.447046 -0.079831 2.056764 -16.480740 -27.634796 105.980368 -15.494460 0.000000 0.000000 -4.364134 0.000000 0.000000 4.260386 -0.094452 1.375350 -25.968736 0.767264 14.996473 -19.649340 0.000000 0.000000 -1.725255 0.000000 0.000000 -6.917769 0.291382 2.291170 -15.660314 2.138555 12.874383 -16.199939 0.000000 0.000000 -9.967046 0.000000 0.000000 0.441624 -0.014543 2.538997 5.026303 9.550737 -10.479268 4.610411 19.727792 -16.064140 -43.396071 44.108077 -39.297881 -14.295942 0.303358 -18.869927 24.208469 1.894313 4.958368 20.750613 0.000000 0.000000 -0.627291 0.000000 0.000000 -7.969741 -5.107087 -8.050663 16.311098 3.903535 11.970395 29.651485 0.000000 0.000000 2.512871 0.000000 0.000000 6.271931 -1.933901 -4.817211 15.613284 -0.228349 10.793313 30.984095 0.000000 0.000000 19.509334 0.000000 0.000000 -1.013052 -2.505694 -6.799366 12.011047 7.076391 11.519026 16.717056 0.000000 0.000000 -3.145403 0.000000 0.000000 -3.109834 -2.403556 -3.139792 12.723719 31.698020 105.624679 25.382243 0.000000 0.000000 22.706587 0.000000 0.000000 -4.610124 -2.491975 -2.359596 0.000000 0.000000 0.000000 0.000000 0.000000 0.000000 0.000000 0.000000 0.000000 0.000000 0.000000 0.000000 0.000000 0.000000 0.000000 0.000000 0.000000 0.000000 0.000000 0.000000 0.000000 0.000000 0.000000 0.000000 
